HIERARCHY
ROOT Hips
{
	OFFSET -3.958830 18.904000 13.208200
	CHANNELS 6 Xposition Yposition Zposition Zrotation Yrotation Xrotation 
	JOINT LHipJoint
	{
		OFFSET 0.000000 0.000000 0.000000
		CHANNELS 3 Zrotation Yrotation Xrotation
		JOINT LeftUpLeg
		{
			OFFSET 1.800000 -1.400000 0.085000
			CHANNELS 3 Zrotation Yrotation Xrotation
			JOINT LeftLeg
			{
				OFFSET 2.215000 -6.000000 0.000000
				CHANNELS 3 Zrotation Yrotation Xrotation
				JOINT LeftFoot
				{
					OFFSET 2.500000 -6.900000 0.000000
					CHANNELS 3 Zrotation Yrotation Xrotation
					JOINT LeftToeBase
					{
						OFFSET 0.200000 -0.500000 1.950000
						CHANNELS 3 Zrotation Yrotation Xrotation
						End Site
						{
							OFFSET 0.000000 0.000000 0.000000
						}
					}
				}
			}
		}
	}
	JOINT RHipJoint
	{
		OFFSET 0.000000 0.000000 0.000000
		CHANNELS 3 Zrotation Yrotation Xrotation
		JOINT RightUpLeg
		{
			OFFSET -1.800000 -1.400000 0.085000
			CHANNELS 3 Zrotation Yrotation Xrotation
			JOINT RightLeg
			{
				OFFSET -2.215000 -6.000000 0.000000
				CHANNELS 3 Zrotation Yrotation Xrotation
				JOINT RightFoot
				{
					OFFSET -2.500000 -6.900000 0.000000
					CHANNELS 3 Zrotation Yrotation Xrotation
					JOINT RightToeBase
					{
						OFFSET -0.200000 -0.500000 1.950000
						CHANNELS 3 Zrotation Yrotation Xrotation
						End Site
						{
							OFFSET 0.000000 0.000000 0.000000
						}
					}
				}
			}
		}
	}
	JOINT LowerBack
	{
		OFFSET 0.000000 0.000000 0.000000
		CHANNELS 3 Zrotation Yrotation Xrotation
		JOINT Spine
		{
			OFFSET -0.087000 1.940000 -0.288900
			CHANNELS 3 Zrotation Yrotation Xrotation
			JOINT Spine1
			{
				OFFSET 0.000000 1.950000 0.060000
				CHANNELS 3 Zrotation Yrotation Xrotation
				JOINT Neck
				{
					OFFSET 0.000000 0.000000 0.000000
					CHANNELS 3 Zrotation Yrotation Xrotation
					JOINT Neck1
					{
						OFFSET 0.000000 1.600000 0.340000
						CHANNELS 3 Zrotation Yrotation Xrotation
						JOINT Head
						{
							OFFSET 0.000000 1.667000 -0.240000
							CHANNELS 3 Zrotation Yrotation Xrotation
							End Site
							{
								OFFSET 0.000000 0.000000 0.000000
							}
						}
					}
				}
				JOINT LeftShoulder
				{
					OFFSET 0.000000 0.000000 0.000000
					CHANNELS 3 Zrotation Yrotation Xrotation
					JOINT LeftArm
					{
						OFFSET 2.700000 1.550000 -0.730000
						CHANNELS 3 Zrotation Yrotation Xrotation
						JOINT LeftForeArm
						{
							OFFSET 5.450000 0.000000 0.000000
							CHANNELS 3 Zrotation Yrotation Xrotation
							JOINT LeftHand
							{
								OFFSET 3.450000 0.000000 0.000000
								CHANNELS 3 Zrotation Yrotation Xrotation
								JOINT LeftHandIndex1
								{
									OFFSET 0.750000 0.000000 0.000000
									CHANNELS 3 Zrotation Yrotation Xrotation
									End Site
									{
										OFFSET 0.000000 0.000000 0.000000
									}
								}
							}
						}
					}
				}
				JOINT RightShoulder
				{
					OFFSET 0.000000 0.000000 0.000000
					CHANNELS 3 Zrotation Yrotation Xrotation
					JOINT RightArm
					{
						OFFSET -2.700000 1.550000 -0.730000
						CHANNELS 3 Zrotation Yrotation Xrotation
						JOINT RightForeArm
						{
							OFFSET -5.450000 0.000000 0.000000
							CHANNELS 3 Zrotation Yrotation Xrotation
							JOINT RightHand
							{
								OFFSET -3.450000 0.000000 0.000000
								CHANNELS 3 Zrotation Yrotation Xrotation
								JOINT RightHandIndex1
								{
									OFFSET -0.750000 0.000000 0.000000
									CHANNELS 3 Zrotation Yrotation Xrotation
									End Site
									{
										OFFSET 0.000000 0.000000 0.000000
									}
								}
							}
						}
					}
				}
			}
		}
	}
}
MOTION
Frames: 10
Frame Time: 0.016667
1.189650 16.186800 -2.128510 2.131226 0.708215 2.448680 -14.938386 13.049730 2.934877 9.921404 -3.634213 -18.561571 -9.562975 9.266089 27.377227 -0.795369 6.639841 2.421108 0.694210 0.018960 0.647680 18.510480 -11.014792 2.561273 -2.773660 2.595391 -21.884100 5.482177 -8.285522 31.890101 -0.430762 -5.038835 2.786613 0.324490 0.439070 0.354420 -4.260214 -1.175069 -6.994422 16.174556 -4.112636 8.930844 -8.671354 -2.117478 9.021169 3.046966 -0.289348 -6.741644 -1.058114 -3.005127 23.686863 -7.986570 0.930230 -9.250260 -21.554440 -4.265208 0.910494 -28.267099 -9.523697 6.966077 -145.681413 -52.221138 107.709951 -4.091496 3.596705 0.598140 0.429040 -0.283070 0.302450 15.112510 1.237023 5.133085 36.649421 -12.331456 -12.732655 20.314761 60.650465 7.987372 1.218428 -2.028991 -0.431900 0.376070 -0.000300 -0.529820 
1.241150 16.121920 -2.123950 2.352058 -0.955538 2.542917 -14.944791 13.149833 2.711823 9.219388 -3.302905 -17.491062 -7.244007 8.403733 27.141968 -0.885218 6.351782 2.538685 0.703860 0.029340 0.659910 18.510043 -10.908522 2.759663 -2.432104 3.205159 -22.982476 8.053170 -9.097949 31.799424 -0.463407 -5.205055 2.714780 0.349380 0.461380 0.366260 -4.231911 -1.298070 -6.940626 15.504409 -4.360582 8.656609 -8.727225 -2.466489 9.580588 2.910351 -0.419220 -6.700122 -1.191053 -1.795315 23.270097 -8.195620 1.956150 -9.267060 -22.140758 -4.590923 1.006677 -25.004577 -8.397673 6.193893 -148.502304 -52.401916 112.296238 -4.130682 3.593263 0.590840 0.457140 -0.294260 0.302760 16.073470 1.517864 5.180551 34.796166 -12.291102 -11.891381 27.689030 65.626358 12.596249 1.218928 -2.124087 -0.446600 0.386240 0.005640 -0.538630 
1.277830 16.033120 -2.123780 2.423299 -2.870406 2.416688 -14.956495 13.231050 2.523188 8.937110 -2.993606 -16.575967 -5.152838 7.779642 27.443327 -0.931162 6.170885 2.602718 0.743760 0.083490 0.689310 18.506634 -10.796548 2.964224 -1.981203 4.013357 -24.329097 9.759333 -9.840398 33.026788 -0.543115 -5.485845 2.612512 0.382750 0.447470 0.367410 -4.189651 -1.400836 -6.935667 14.613776 -4.458725 8.870030 -8.476246 -2.642186 10.074614 2.821744 -0.358439 -6.727908 -1.032897 -0.553640 23.074750 -8.173650 3.077260 -10.060810 -22.770730 -4.904067 1.331701 -22.579303 -6.488543 4.966300 -151.347427 -53.092709 117.172691 -4.132714 3.579982 0.596760 0.456910 -0.278150 0.310490 16.997736 1.829421 5.072650 33.483212 -11.262260 -10.942545 34.806808 69.577713 17.643693 1.247538 -2.173755 -0.441320 0.390460 -0.015500 -0.546980 
1.318720 15.945650 -2.139170 2.578949 -4.529752 2.025874 -14.964554 13.293045 2.370011 8.302776 -2.883768 -16.024181 -2.799288 7.164073 28.787841 -0.930964 6.092331 2.613813 0.802430 0.156460 0.728550 18.510511 -10.660066 3.177525 -2.375059 4.850950 -26.195576 11.557605 -11.084499 35.590470 -0.685727 -6.030254 2.402567 0.414040 0.405390 0.378570 -4.171723 -1.544427 -6.974926 13.988686 -4.774793 9.601951 -8.359402 -2.956969 10.375162 2.597187 -0.878699 -6.657090 -1.899220 0.816701 23.163780 -8.069160 3.930070 -11.028350 -23.489055 -4.950721 1.459741 -20.651744 -4.671974 3.540517 -152.945077 -54.431687 120.565177 -4.104315 3.591266 0.602590 0.433190 -0.244140 0.317260 18.221903 2.267323 4.930435 32.005096 -9.719736 -9.678781 43.408047 72.961419 24.150513 1.328773 -2.194036 -0.408440 0.368890 -0.048080 -0.548050 
1.351640 15.850400 -2.156130 2.507786 -6.198292 1.673247 -14.971910 13.298559 2.247790 8.564099 -2.727822 -15.497878 -1.767128 7.085696 29.889330 -0.863115 6.156160 2.588926 0.857240 0.252390 0.712400 18.523854 -10.474137 3.407448 -3.077768 5.842819 -28.464905 12.944702 -12.461269 39.008634 -0.855705 -6.746481 2.162129 0.451710 0.402110 0.379100 -4.172259 -1.685078 -7.058882 13.553723 -5.042076 10.495258 -8.118477 -3.238946 10.158537 2.199149 -1.734296 -6.465843 -3.311840 2.264303 23.100439 -7.067810 4.200520 -11.002880 -24.531315 -4.796047 1.359599 -18.918130 -3.111838 2.345500 -151.770962 -55.818666 119.639554 -4.070343 3.636989 0.566570 0.422610 -0.231490 0.360610 20.067905 2.743759 4.783377 29.775938 -8.520133 -8.181548 51.849308 74.972112 30.504307 1.448392 -2.172405 -0.362450 0.357990 -0.090170 -0.505880 
1.374580 15.743120 -2.158090 2.414090 -8.354544 1.011185 -14.996641 13.294211 2.118116 9.111526 -2.485108 -14.378847 -1.340692 7.344040 31.040070 -0.831436 6.386563 2.501529 0.894430 0.307050 0.730530 18.524431 -10.247078 3.661252 -4.567691 6.874104 -30.708228 14.693510 -14.315362 42.855148 -1.070367 -7.642649 1.862810 0.489580 0.394270 0.368680 -4.131961 -1.864114 -7.168037 12.750567 -5.041879 11.538312 -7.550120 -3.308273 9.891819 1.831457 -2.506922 -6.041646 -4.642436 3.386614 23.252696 -6.774760 4.362060 -11.802070 -25.532385 -4.311559 1.000093 -17.719231 -1.890925 1.317488 -148.554619 -57.621053 116.106128 -4.061699 3.607386 0.574270 0.409400 -0.213880 0.371170 21.823523 2.887074 4.387284 27.448419 -6.941688 -6.820260 58.871838 75.311686 35.380141 1.562195 -2.047135 -0.360640 0.387430 -0.103930 -0.501870 
1.397220 15.639210 -2.149210 2.396774 -10.570375 -0.188030 -15.009796 13.265201 2.030376 9.811387 -2.230382 -12.846349 -1.755898 8.052590 32.554878 -0.716201 6.738486 2.357641 0.981190 0.412450 0.762910 18.527745 -10.044005 3.885859 -7.080491 7.501813 -32.234846 17.256239 -16.612913 45.918775 -1.324603 -8.589461 1.546995 0.531340 0.343630 0.376270 -4.118886 -2.004536 -7.310361 12.109203 -5.061443 13.037406 -7.305676 -3.432301 9.475185 1.449672 -3.394158 -5.553123 -6.242137 4.622563 23.843541 -5.812470 4.289600 -12.539740 -26.838009 -3.784587 0.493249 -16.520224 -0.897281 0.173170 -142.675029 -60.031998 109.790589 -3.997420 3.640261 0.573810 0.362710 -0.173200 0.399880 23.864674 3.021355 4.002761 25.394593 -4.921101 -5.218307 69.545731 76.231487 42.980589 1.833140 -1.756451 -0.305750 0.361750 -0.155840 -0.481050 
1.410760 15.538910 -2.151420 2.513954 -12.683502 -1.473525 -15.059538 13.220437 1.990088 10.515311 -2.028354 -11.664171 -2.608012 9.065706 34.322661 -0.595033 7.206709 2.184105 1.010100 0.453840 0.772070 18.500756 -9.742914 4.158499 -10.328741 8.007398 -33.895820 20.693894 -19.451611 48.456723 -1.588888 -9.579330 1.245867 0.541920 0.313630 0.357920 -4.017397 -2.288269 -7.525547 10.874868 -4.945324 15.081828 -6.700757 -3.454333 8.584191 1.087683 -4.278475 -5.176011 -7.900432 5.878043 24.424091 -5.169010 4.327900 -13.468960 -27.931920 -3.268745 0.041657 -16.216123 -0.224362 -0.873923 -132.914182 -62.738861 99.445645 -3.972380 3.574147 0.596110 0.319920 -0.145230 0.407340 25.673766 3.387741 3.562221 24.405369 -2.998603 -4.509551 80.681817 76.020282 50.646160 2.173837 -1.215682 -0.291650 0.372820 -0.173970 -0.472670 
1.427570 15.463500 -2.165100 2.623479 -14.568090 -3.312611 -15.125974 13.221401 1.994221 10.961909 -1.903052 -10.560018 -3.206118 10.089779 36.625618 -0.438063 7.749086 1.999081 1.001050 0.435760 0.776050 18.443338 -9.424997 4.436190 -14.163369 8.111723 -34.775153 25.110072 -22.543697 49.581662 -1.840566 -10.425207 1.007818 0.508850 0.280000 0.337010 -3.842468 -2.698620 -7.804533 9.403205 -4.826086 18.237660 -5.823136 -3.457246 7.214155 0.797767 -5.177612 -5.003571 -9.764915 7.052052 25.655189 -4.877680 4.372870 -14.541370 -29.263434 -3.077311 -0.113080 -16.434751 0.523936 -1.830373 -117.022133 -64.882664 82.462013 -3.983137 3.458289 0.646480 0.262870 -0.107960 0.404820 27.597526 4.392763 3.129486 23.547342 -1.341023 -5.008190 87.932478 74.212707 55.326396 2.321669 -0.937457 -0.291420 0.387030 -0.179310 -0.472440 
1.434540 15.403550 -2.180910 2.286005 -16.628598 -5.321736 -15.186992 13.235573 2.009799 12.060857 -1.712613 -9.468213 -3.741342 11.325995 39.273913 -0.251472 8.375279 1.777526 0.952560 0.369640 0.781480 18.383161 -9.124136 4.701336 -17.699513 8.239062 -34.870445 29.997662 -25.461552 49.597523 -2.057015 -11.033205 0.853737 0.435520 0.219790 0.299440 -3.670234 -3.082052 -8.094663 8.364569 -4.561164 21.844515 -5.171548 -3.211251 5.877127 0.809806 -5.822920 -5.246120 -11.384976 8.079657 27.822641 -5.072130 4.725170 -16.087380 -30.321301 -3.145787 0.076418 -17.819843 0.955450 -2.577470 -99.087774 -65.786187 64.652294 -3.953316 3.398068 0.720870 0.184660 -0.061730 0.368460 28.628606 5.625468 3.076869 24.475319 0.041910 -5.975123 92.400106 72.265476 57.848197 2.365111 -0.849837 -0.299680 0.395630 -0.166380 -0.490790 
